<mxfile host="app.diagrams.net" agent="Mozilla/5.0 (Windows NT 10.0; Win64; x64) AppleWebKit/537.36 (KHTML, like Gecko) Chrome/131.0.0.0 Safari/537.36" version="24.7.17">
  <diagram id="C5RBs43oDa-KdzZeNtuy" name="Page-1">
    <mxGraphModel dx="1434" dy="738" grid="1" gridSize="10" guides="1" tooltips="1" connect="1" arrows="1" fold="1" page="1" pageScale="1" pageWidth="827" pageHeight="1169" math="0" shadow="0">
      <root>
        <mxCell id="WIyWlLk6GJQsqaUBKTNV-0" />
        <mxCell id="WIyWlLk6GJQsqaUBKTNV-1" parent="WIyWlLk6GJQsqaUBKTNV-0" />
        <mxCell id="WIyWlLk6GJQsqaUBKTNV-2" value="" style="rounded=0;html=1;jettySize=auto;orthogonalLoop=1;fontSize=11;endArrow=block;endFill=0;endSize=8;strokeWidth=1;shadow=0;labelBackgroundColor=none;edgeStyle=orthogonalEdgeStyle;entryX=0.5;entryY=0;entryDx=0;entryDy=0;" parent="WIyWlLk6GJQsqaUBKTNV-1" source="WIyWlLk6GJQsqaUBKTNV-3" target="Rno_ZF1OjCvpkaQ3mlHE-1" edge="1">
          <mxGeometry relative="1" as="geometry">
            <mxPoint x="102.5" y="245" as="targetPoint" />
            <Array as="points">
              <mxPoint x="102.5" y="220" />
              <mxPoint x="103.5" y="220" />
            </Array>
          </mxGeometry>
        </mxCell>
        <mxCell id="WIyWlLk6GJQsqaUBKTNV-3" value="开始" style="rounded=1;whiteSpace=wrap;html=1;fontSize=12;glass=0;strokeWidth=1;shadow=0;" parent="WIyWlLk6GJQsqaUBKTNV-1" vertex="1">
          <mxGeometry x="42.5" y="135" width="120" height="40" as="geometry" />
        </mxCell>
        <mxCell id="WIyWlLk6GJQsqaUBKTNV-4" value="Yes" style="rounded=0;html=1;jettySize=auto;orthogonalLoop=1;fontSize=11;endArrow=block;endFill=0;endSize=8;strokeWidth=1;shadow=0;labelBackgroundColor=none;edgeStyle=orthogonalEdgeStyle;exitX=0.5;exitY=1;exitDx=0;exitDy=0;" parent="WIyWlLk6GJQsqaUBKTNV-1" source="Rno_ZF1OjCvpkaQ3mlHE-1" edge="1">
          <mxGeometry y="20" relative="1" as="geometry">
            <mxPoint as="offset" />
            <mxPoint x="102.5" y="325" as="sourcePoint" />
            <mxPoint x="102.5" y="365" as="targetPoint" />
          </mxGeometry>
        </mxCell>
        <mxCell id="WIyWlLk6GJQsqaUBKTNV-5" value="No" style="edgeStyle=orthogonalEdgeStyle;rounded=0;html=1;jettySize=auto;orthogonalLoop=1;fontSize=11;endArrow=block;endFill=0;endSize=8;strokeWidth=1;shadow=0;labelBackgroundColor=none;" parent="WIyWlLk6GJQsqaUBKTNV-1" edge="1">
          <mxGeometry y="10" relative="1" as="geometry">
            <mxPoint as="offset" />
            <mxPoint x="152.5" y="285" as="sourcePoint" />
            <mxPoint x="392.5" y="285" as="targetPoint" />
          </mxGeometry>
        </mxCell>
        <mxCell id="Rno_ZF1OjCvpkaQ3mlHE-25" style="edgeStyle=orthogonalEdgeStyle;rounded=0;orthogonalLoop=1;jettySize=auto;html=1;" edge="1" parent="WIyWlLk6GJQsqaUBKTNV-1" target="Rno_ZF1OjCvpkaQ3mlHE-21">
          <mxGeometry relative="1" as="geometry">
            <mxPoint x="372.5" y="285" as="sourcePoint" />
          </mxGeometry>
        </mxCell>
        <mxCell id="WIyWlLk6GJQsqaUBKTNV-9" value="Yes" style="edgeStyle=orthogonalEdgeStyle;rounded=0;html=1;jettySize=auto;orthogonalLoop=1;fontSize=11;endArrow=block;endFill=0;endSize=8;strokeWidth=1;shadow=0;labelBackgroundColor=none;" parent="WIyWlLk6GJQsqaUBKTNV-1" target="WIyWlLk6GJQsqaUBKTNV-12" edge="1">
          <mxGeometry y="10" relative="1" as="geometry">
            <mxPoint as="offset" />
            <mxPoint x="152.5" y="405" as="sourcePoint" />
          </mxGeometry>
        </mxCell>
        <mxCell id="Rno_ZF1OjCvpkaQ3mlHE-4" value="" style="edgeStyle=orthogonalEdgeStyle;rounded=0;orthogonalLoop=1;jettySize=auto;html=1;" edge="1" parent="WIyWlLk6GJQsqaUBKTNV-1" source="WIyWlLk6GJQsqaUBKTNV-11" target="Rno_ZF1OjCvpkaQ3mlHE-3">
          <mxGeometry relative="1" as="geometry" />
        </mxCell>
        <mxCell id="WIyWlLk6GJQsqaUBKTNV-11" value="开启物体shooting" style="rounded=1;whiteSpace=wrap;html=1;fontSize=12;glass=0;strokeWidth=1;shadow=0;" parent="WIyWlLk6GJQsqaUBKTNV-1" vertex="1">
          <mxGeometry x="42.5" y="375" width="120" height="40" as="geometry" />
        </mxCell>
        <mxCell id="Rno_ZF1OjCvpkaQ3mlHE-22" value="" style="edgeStyle=orthogonalEdgeStyle;rounded=0;orthogonalLoop=1;jettySize=auto;html=1;" edge="1" parent="WIyWlLk6GJQsqaUBKTNV-1" source="WIyWlLk6GJQsqaUBKTNV-12" target="Rno_ZF1OjCvpkaQ3mlHE-21">
          <mxGeometry relative="1" as="geometry" />
        </mxCell>
        <mxCell id="WIyWlLk6GJQsqaUBKTNV-12" value="提示对准摄像头" style="rounded=1;whiteSpace=wrap;html=1;fontSize=12;glass=0;strokeWidth=1;shadow=0;" parent="WIyWlLk6GJQsqaUBKTNV-1" vertex="1">
          <mxGeometry x="252.5" y="385" width="120" height="40" as="geometry" />
        </mxCell>
        <mxCell id="Rno_ZF1OjCvpkaQ3mlHE-1" value="感应人体" style="rounded=1;whiteSpace=wrap;html=1;fontSize=12;glass=0;strokeWidth=1;shadow=0;" vertex="1" parent="WIyWlLk6GJQsqaUBKTNV-1">
          <mxGeometry x="42.5" y="255" width="120" height="40" as="geometry" />
        </mxCell>
        <mxCell id="Rno_ZF1OjCvpkaQ3mlHE-6" value="" style="edgeStyle=orthogonalEdgeStyle;rounded=0;orthogonalLoop=1;jettySize=auto;html=1;" edge="1" parent="WIyWlLk6GJQsqaUBKTNV-1" source="Rno_ZF1OjCvpkaQ3mlHE-3" target="Rno_ZF1OjCvpkaQ3mlHE-5">
          <mxGeometry relative="1" as="geometry" />
        </mxCell>
        <mxCell id="Rno_ZF1OjCvpkaQ3mlHE-3" value="裁剪物体图像" style="rounded=1;whiteSpace=wrap;html=1;fontSize=12;glass=0;strokeWidth=1;shadow=0;" vertex="1" parent="WIyWlLk6GJQsqaUBKTNV-1">
          <mxGeometry x="42.5" y="495" width="120" height="40" as="geometry" />
        </mxCell>
        <mxCell id="Rno_ZF1OjCvpkaQ3mlHE-8" value="" style="edgeStyle=orthogonalEdgeStyle;rounded=0;orthogonalLoop=1;jettySize=auto;html=1;" edge="1" parent="WIyWlLk6GJQsqaUBKTNV-1" source="Rno_ZF1OjCvpkaQ3mlHE-5" target="Rno_ZF1OjCvpkaQ3mlHE-7">
          <mxGeometry relative="1" as="geometry" />
        </mxCell>
        <mxCell id="Rno_ZF1OjCvpkaQ3mlHE-5" value="获取物体名称类别" style="rounded=1;whiteSpace=wrap;html=1;fontSize=12;glass=0;strokeWidth=1;shadow=0;" vertex="1" parent="WIyWlLk6GJQsqaUBKTNV-1">
          <mxGeometry x="42.5" y="615" width="120" height="40" as="geometry" />
        </mxCell>
        <mxCell id="Rno_ZF1OjCvpkaQ3mlHE-10" value="" style="edgeStyle=orthogonalEdgeStyle;rounded=0;orthogonalLoop=1;jettySize=auto;html=1;" edge="1" parent="WIyWlLk6GJQsqaUBKTNV-1" source="Rno_ZF1OjCvpkaQ3mlHE-7" target="Rno_ZF1OjCvpkaQ3mlHE-9">
          <mxGeometry relative="1" as="geometry" />
        </mxCell>
        <mxCell id="Rno_ZF1OjCvpkaQ3mlHE-7" value="显示物体名和类别（显示器/语音）" style="rounded=1;whiteSpace=wrap;html=1;fontSize=12;glass=0;strokeWidth=1;shadow=0;" vertex="1" parent="WIyWlLk6GJQsqaUBKTNV-1">
          <mxGeometry y="745" width="205" height="40" as="geometry" />
        </mxCell>
        <mxCell id="Rno_ZF1OjCvpkaQ3mlHE-12" value="" style="edgeStyle=orthogonalEdgeStyle;rounded=0;orthogonalLoop=1;jettySize=auto;html=1;" edge="1" parent="WIyWlLk6GJQsqaUBKTNV-1" source="Rno_ZF1OjCvpkaQ3mlHE-9" target="Rno_ZF1OjCvpkaQ3mlHE-11">
          <mxGeometry relative="1" as="geometry" />
        </mxCell>
        <mxCell id="Rno_ZF1OjCvpkaQ3mlHE-9" value="打开对应类别的口" style="rounded=1;whiteSpace=wrap;html=1;fontSize=12;glass=0;strokeWidth=1;shadow=0;" vertex="1" parent="WIyWlLk6GJQsqaUBKTNV-1">
          <mxGeometry x="27.5" y="855" width="150" height="40" as="geometry" />
        </mxCell>
        <mxCell id="Rno_ZF1OjCvpkaQ3mlHE-14" value="" style="edgeStyle=orthogonalEdgeStyle;rounded=0;orthogonalLoop=1;jettySize=auto;html=1;" edge="1" parent="WIyWlLk6GJQsqaUBKTNV-1" source="Rno_ZF1OjCvpkaQ3mlHE-11" target="Rno_ZF1OjCvpkaQ3mlHE-13">
          <mxGeometry relative="1" as="geometry" />
        </mxCell>
        <mxCell id="Rno_ZF1OjCvpkaQ3mlHE-11" value="等待用户丢弃垃圾" style="whiteSpace=wrap;html=1;rounded=1;glass=0;strokeWidth=1;shadow=0;" vertex="1" parent="WIyWlLk6GJQsqaUBKTNV-1">
          <mxGeometry x="42.5" y="965" width="120" height="60" as="geometry" />
        </mxCell>
        <mxCell id="Rno_ZF1OjCvpkaQ3mlHE-27" value="" style="edgeStyle=orthogonalEdgeStyle;rounded=0;orthogonalLoop=1;jettySize=auto;html=1;" edge="1" parent="WIyWlLk6GJQsqaUBKTNV-1" source="Rno_ZF1OjCvpkaQ3mlHE-13" target="Rno_ZF1OjCvpkaQ3mlHE-26">
          <mxGeometry relative="1" as="geometry" />
        </mxCell>
        <mxCell id="Rno_ZF1OjCvpkaQ3mlHE-13" value="关闭垃圾桶" style="whiteSpace=wrap;html=1;rounded=1;glass=0;strokeWidth=1;shadow=0;" vertex="1" parent="WIyWlLk6GJQsqaUBKTNV-1">
          <mxGeometry x="252.5" y="965" width="120" height="60" as="geometry" />
        </mxCell>
        <mxCell id="Rno_ZF1OjCvpkaQ3mlHE-24" style="edgeStyle=orthogonalEdgeStyle;rounded=0;orthogonalLoop=1;jettySize=auto;html=1;entryX=1;entryY=0.5;entryDx=0;entryDy=0;" edge="1" parent="WIyWlLk6GJQsqaUBKTNV-1" source="Rno_ZF1OjCvpkaQ3mlHE-21" target="Rno_ZF1OjCvpkaQ3mlHE-3">
          <mxGeometry relative="1" as="geometry" />
        </mxCell>
        <mxCell id="Rno_ZF1OjCvpkaQ3mlHE-29" value="" style="edgeStyle=orthogonalEdgeStyle;rounded=0;orthogonalLoop=1;jettySize=auto;html=1;" edge="1" parent="WIyWlLk6GJQsqaUBKTNV-1" source="Rno_ZF1OjCvpkaQ3mlHE-21" target="Rno_ZF1OjCvpkaQ3mlHE-28">
          <mxGeometry relative="1" as="geometry" />
        </mxCell>
        <mxCell id="Rno_ZF1OjCvpkaQ3mlHE-21" value="waitting" style="rhombus;whiteSpace=wrap;html=1;rounded=1;glass=0;strokeWidth=1;shadow=0;" vertex="1" parent="WIyWlLk6GJQsqaUBKTNV-1">
          <mxGeometry x="492.5" y="475" width="80" height="80" as="geometry" />
        </mxCell>
        <mxCell id="Rno_ZF1OjCvpkaQ3mlHE-26" value="完成" style="ellipse;whiteSpace=wrap;html=1;rounded=1;glass=0;strokeWidth=1;shadow=0;" vertex="1" parent="WIyWlLk6GJQsqaUBKTNV-1">
          <mxGeometry x="492.5" y="955" width="80" height="80" as="geometry" />
        </mxCell>
        <mxCell id="Rno_ZF1OjCvpkaQ3mlHE-30" style="edgeStyle=orthogonalEdgeStyle;rounded=0;orthogonalLoop=1;jettySize=auto;html=1;exitX=0.5;exitY=1;exitDx=0;exitDy=0;entryX=0.5;entryY=0;entryDx=0;entryDy=0;" edge="1" parent="WIyWlLk6GJQsqaUBKTNV-1" source="Rno_ZF1OjCvpkaQ3mlHE-28" target="Rno_ZF1OjCvpkaQ3mlHE-26">
          <mxGeometry relative="1" as="geometry" />
        </mxCell>
        <mxCell id="Rno_ZF1OjCvpkaQ3mlHE-28" value="关闭" style="triangle;whiteSpace=wrap;html=1;rounded=1;glass=0;strokeWidth=1;shadow=0;" vertex="1" parent="WIyWlLk6GJQsqaUBKTNV-1">
          <mxGeometry x="502.5" y="635" width="60" height="80" as="geometry" />
        </mxCell>
      </root>
    </mxGraphModel>
  </diagram>
</mxfile>
